<svg aria-hidden="true" style="position: absolute; width: 0; height: 0; overflow: hidden;" version="1.1" xmlns="http://www.w3.org/2000/svg" xmlns:xlink="http://www.w3.org/1999/xlink">
<defs>
<symbol id="icon-logo" viewBox="0 0 151 23">
<path d="M21.1865 21.8843L21.0831 22.0135H27.2861L27.2344 21.9618C27.1569 21.8584 27.0277 21.6517 26.8468 21.3157L26.8209 21.2381C26.5108 20.6178 26.2006 19.5581 26.2006 18.0074V14.544C26.2006 10.2535 24.2621 6.76429 19.7649 6.76429C17.3871 6.76429 15.5778 8.15998 14.6991 9.55567C13.8461 7.84983 12.3471 6.76429 10.1243 6.76429C9.27137 6.76429 8.18583 6.91937 7.53968 7.20368C5.4203 8.08244 3.0166 8.0566 0.923065 7.10029C0.974757 7.20367 1.20737 7.51383 1.43999 8.10829C1.7243 8.78029 1.98276 9.78829 1.98276 11.1064L2.0086 18.0074C2.0086 20.3077 1.28491 21.5224 1.0006 21.8843L0.923065 22.0135H7.12614L7.07445 21.9618C6.99691 21.8584 6.84183 21.6517 6.66091 21.3157L6.63507 21.2381C6.35076 20.6178 6.0406 19.5581 6.0406 18.0074L6.01476 13.6652C6.01476 9.83998 7.0486 7.90152 9.7883 7.90152C11.3908 7.90152 12.0886 9.83998 12.0886 13.6394C12.0886 13.6652 12.0886 13.6652 12.0886 13.6911V18.0074C12.0886 20.3077 11.3649 21.5224 11.1065 21.8843L11.0031 22.0135H17.2061L17.1544 21.9618C17.0769 21.8584 16.9477 21.6517 16.7668 21.3157L16.7409 21.2381C16.4308 20.6178 16.1206 19.5581 16.1206 18.0074V13.3034C16.1981 9.68491 17.2061 7.90152 19.8683 7.90152C21.4708 7.90152 22.1686 9.83998 22.1686 13.6911V18.0074C22.1686 20.3077 21.4449 21.5224 21.1865 21.8843Z" fill="#2D3132"/>
<path d="M37.1872 6.76429C31.5011 6.76429 28.8906 10.2535 28.8906 14.544C28.8906 18.8603 31.5011 22.3495 37.1872 22.3495C42.8992 22.3495 45.5097 18.8603 45.5097 14.544C45.5097 10.2535 42.8992 6.76429 37.1872 6.76429ZM39.4617 20.7988C36.1792 21.9877 34.1374 18.6794 33.1552 16.0172C32.1989 13.3809 31.6303 9.50398 34.9386 8.28921C38.2211 7.10029 40.2888 10.4344 41.2451 13.0708C42.2014 15.7329 42.77 19.584 39.4617 20.7988Z" fill="#2D3132"/>
<path d="M58.9709 21.8843L58.8934 22.0135H64.7346L64.6829 21.9618C64.6054 21.8584 64.4503 21.6517 64.2694 21.3157L64.2435 21.2381C63.9592 20.6178 63.6491 19.5581 63.6491 18.0074V14.544C63.6491 10.2535 61.7881 6.76429 56.5672 6.76429C55.6884 6.76429 54.6029 6.91937 53.9567 7.20368C51.8374 8.08244 49.4337 8.0566 47.3401 7.10029C47.3918 7.20367 47.6244 7.51383 47.8571 8.10829C48.1414 8.78029 48.3998 9.78829 48.3998 11.1064L48.4257 18.0074C48.4257 20.3077 47.702 21.5224 47.4177 21.8843L47.3401 22.0135H53.5432L53.4915 21.9618C53.414 21.8584 53.2589 21.6517 53.078 21.3157L53.0521 21.2381C52.7678 20.6178 52.4577 19.5581 52.4577 18.0074L52.4318 13.6652C52.4318 9.83998 53.3881 7.90152 56.5672 7.90152C59.0226 7.90152 59.9789 9.83998 59.9789 13.6911V18.0074C59.9789 20.3077 59.2552 21.5224 58.9709 21.8843Z" fill="#2D3132"/>
<path d="M80.423 7.10029C80.6298 8.18583 80.5005 9.32306 80.0611 10.3311L75.4088 20.6178L70.7307 10.3311C70.2913 9.32306 70.1621 8.18583 70.3688 7.10029H63.8039C64.9928 8.21167 65.975 9.52983 66.647 11.0289L71.5836 22.0135H76.0033L80.9658 11.0289C81.6378 9.52983 82.6199 8.21167 83.8347 7.10029H80.423Z" fill="#2D3132"/>
<path d="M99.8696 11.1064C99.8696 8.44429 100.955 7.10029 100.955 7.10029C98.8358 8.0566 96.4321 8.08244 94.3127 7.17783C93.6665 6.91937 92.5551 6.76429 91.7022 6.76429C86.4555 6.76429 83.5607 10.2535 83.5607 14.544C83.5607 18.8603 86.4555 22.3237 91.7022 22.3237C93.8733 22.3237 94.9071 21.3415 95.8376 20.0492C95.8376 21.1348 97.0782 22.0135 98.1638 22.0135H100.955C100.955 22.0135 99.8696 20.7212 99.8696 18.3951V11.1064ZM91.7022 21.1864C89.221 21.1864 87.5668 18.3951 87.5668 14.544C87.5668 10.7188 89.221 7.90152 91.7022 7.90152C94.8555 7.90152 95.8376 10.7188 95.8376 14.544C95.8376 17.0511 94.8555 21.1864 91.7022 21.1864Z" fill="#2D3132"/>
<path d="M102.743 21.8843L102.665 22.0135H108.842L108.791 21.9618C108.713 21.8584 108.558 21.6517 108.403 21.3157L108.377 21.2381C108.067 20.6178 107.757 19.5581 107.757 18.0074V4.82583C107.757 3.0166 106.284 1.56921 104.474 1.56921H102.665C102.665 1.56921 103.751 2.73229 103.751 5.57537V18.0074C103.751 20.3077 103.027 21.5224 102.743 21.8843Z" fill="#2D3132"/>
<path d="M110.62 21.8843L110.542 22.0135H116.719L116.668 21.9618C116.59 21.8584 116.435 21.6517 116.28 21.3157L116.254 21.2381C115.944 20.6178 115.634 19.5581 115.634 18.0074V10.3569C115.634 8.54767 114.161 7.10029 112.351 7.10029H110.542C110.542 7.10029 111.628 8.26337 111.628 11.1064V18.0074C111.628 20.3077 110.904 21.5224 110.62 21.8843Z" fill="#2D3132"/>
<path d="M125.603 12.9415C124.207 12.7348 122.476 12.3212 122.476 11.2615C122.476 8.78029 124.181 7.90152 125.344 7.90152C126.352 7.90152 128.162 8.78029 128.162 11.7268H130.514C131.418 11.7268 132.116 10.7963 131.754 9.94337C130.72 7.64306 127.386 6.76429 125.293 6.76429C122.501 6.86767 118.469 8.10829 118.469 11.2615C118.469 14.2597 121.416 15.3969 125.086 15.9397C127.024 16.224 128.549 16.6117 128.549 17.7231C128.549 20.3335 126.663 21.1864 125.37 21.1864C123.975 21.1864 122.295 20.3335 122.295 17.7231H120.072C119.038 17.7231 118.366 18.8603 118.883 19.7132C120.02 21.4966 122.992 22.3237 125.344 22.3237C128.911 22.3237 132.581 21.0055 132.581 17.7231C132.581 14.3631 129.273 13.5101 125.603 12.9415Z" fill="#2D3132"/>
<path d="M144.036 20.928C140.857 20.928 139.151 18.1108 138.557 15.3194H148.507C150.058 15.3194 151.17 13.9237 150.782 12.4246C149.877 8.90952 146.698 6.76429 142.64 6.76429C137.549 6.76429 134.344 10.2018 134.344 14.4923C134.344 18.8086 137.549 22.3237 142.64 22.3237C146.466 22.3237 149.567 20.0234 150.627 17.232C150.627 17.232 147.939 20.928 144.036 20.928ZM141.27 8.0566C144.32 7.22952 146.414 10.1243 146.853 13.0708C146.957 13.6135 146.543 14.1821 146 14.1821H138.35C138.169 11.6751 138.608 8.80614 141.27 8.0566Z" fill="#2D3132"/>
<path d="M115.789 3.09417C115.789 4.2831 114.832 5.26525 113.618 5.26525C112.429 5.26525 111.447 4.2831 111.447 3.09417C111.447 1.8794 112.429 0.923096 113.618 0.923096C114.832 0.923096 115.789 1.8794 115.789 3.09417Z" fill="#BAC6EA"/></symbol>
<symbol id="icon-location" viewBox="0 0 27 32">
<path d="M5.414 4.738c4.374-4.184 11.465-4.184 15.839 0 3.913 3.743 4.382 9.659 1.103 13.924l-9.023 11.738-9.023-11.738c-3.278-4.265-2.81-10.181 1.103-13.924zM13.333 17.6c2.651 0 4.8-2.149 4.8-4.8s-2.149-4.8-4.8-4.8c-2.651 0-4.8 2.149-4.8 4.8s2.149 4.8 4.8 4.8z"></path>
</symbol>
<symbol id="icon-lense" viewBox="0 0 32 32">
<path fill="#5c5f60" style="fill: var(--color1, #5c5f60)" d="M22.841 24.936l5.445 5.445 2.095-2.095-5.445-5.445c1.825-2.281 2.916-5.174 2.916-8.322 0-7.364-5.97-13.333-13.333-13.333s-13.333 5.97-13.333 13.333c0 7.364 5.97 13.333 13.333 13.333 3.148 0 6.041-1.091 8.323-2.916zM24.889 14.518c0 5.727-4.643 10.37-10.37 10.37s-10.37-4.643-10.37-10.37 4.643-10.37 10.37-10.37c5.727 0 10.37 4.643 10.37 10.37z"></path>
</symbol>
<symbol id="icon-union" viewBox="0 0 38 32">
<path d="M17.953 6.016l0.998 0.998 0.871-0.871c3.33-3.33 8.729-3.33 12.059 0s3.33 8.729 0 12.058l-7.028 7.027c-3.33 3.33-8.729 3.33-12.058 0l-7.027-7.027c-3.33-3.33-3.33-8.729 0-12.058s8.729-3.33 12.058 0l0.127-0.127zM26.849 27.226l7.027-7.027c4.433-4.433 4.433-11.619 0-16.052-4.113-4.113-10.598-4.41-15.053-0.889-4.455-3.521-10.94-3.225-15.053 0.889-4.433 4.433-4.433 11.619 0 16.052l7.027 7.027c4.433 4.433 11.619 4.433 16.051 0v0z"></path>
</symbol>
<symbol id="icon-heart" viewBox="0 0 35 32">
<path d="M17.251 2.96c3.946-3.946 10.345-3.946 14.291 0s3.946 10.345 0 14.291l-14.291 14.291-14.291-14.291c-3.946-3.946-3.946-10.345 0-14.291s10.345-3.946 14.291-0zM29.16 5.342c-2.631-2.631-6.896-2.631-9.527-0l-2.382 2.382-2.382-2.382c-2.631-2.631-6.896-2.631-9.527 0s-2.631 6.896 0 9.527l11.909 11.909 11.909-11.909c2.631-2.631 2.631-6.896 0-9.527z"></path>
</symbol>
<symbol id="icon-comment" viewBox="0 0 34 32">
<path d="M25.263 10.105c0 0.93-0.754 1.684-1.684 1.684h-13.474c-0.93 0-1.684-0.754-1.684-1.684s0.754-1.684 1.684-1.684h13.474c0.93 0 1.684 0.754 1.684 1.684z"></path>
<path d="M8.421 16.842c0 0.93 0.754 1.684 1.684 1.684h13.474c0.93 0 1.684-0.754 1.684-1.684s-0.754-1.684-1.684-1.684h-13.474c-0.93 0-1.684 0.754-1.684 1.684z"></path>
<path d="M6.737 0h20.211c3.721 0 6.737 3.016 6.737 6.737v13.474c0 3.721-3.016 6.737-6.737 6.737h-10.36c-0.943 0-1.875 0.198-2.736 0.581l-7.695 3.42c-2.895 1.287-6.156-0.832-6.156-4.001v-20.211c0-3.721 3.016-6.737 6.737-6.737zM26.947 3.368h-20.211c-1.86 0-3.368 1.508-3.368 3.368v20.211c0 0.731 0.752 1.219 1.42 0.923l7.695-3.42c1.292-0.574 2.69-0.871 4.104-0.871h10.36c1.86 0 3.368-1.508 3.368-3.368v-13.474c0-1.86-1.508-3.368-3.368-3.368z"></path>
</symbol>
<symbol id="icon-filter-checked" viewBox="0 0 34 32">
<path d="M1.255 6.588c0-3.465 2.809-6.274 6.274-6.274h18.824c3.465 0 6.274 2.809 6.274 6.274v18.824c0 3.465-2.809 6.274-6.274 6.274h-18.824c-3.465 0-6.274-2.809-6.274-6.274v-18.824zM16.262 22.898l11.24-12.105-2.299-2.135-9.152 9.856-5.912-5.255-2.084 2.345 8.206 7.294z"></path>
</symbol>
<symbol id="icon-filter-unchecked" viewBox="0 0 34 32">
<path fill="#c4c7c7" style="fill: var(--color2, #c4c7c7)" d="M26.353 3.451c1.733 0 3.137 1.405 3.137 3.137v18.824c0 1.733-1.405 3.137-3.137 3.137h-18.824c-1.733 0-3.137-1.405-3.137-3.137v-18.824c0-1.733 1.405-3.137 3.137-3.137h18.824zM7.529 0.314c-3.465 0-6.274 2.809-6.274 6.274v18.824c0 3.465 2.809 6.274 6.274 6.274h18.824c3.465 0 6.274-2.809 6.274-6.274v-18.824c0-3.465-2.809-6.274-6.274-6.274h-18.824z"></path>
</symbol>
<symbol id="icon-cart" viewBox="0 0 34 32">
<path d="M4.712 3.368h-4.712v-3.368h7.478l1.068 5.38c0.157 0.788 0.848 1.356 1.652 1.356h16.942c3.528 0 5.97 3.524 4.731 6.827l-2.526 6.737c-0.74 1.972-2.625 3.278-4.731 3.278h-8.976c-4.019 0-7.478-2.84-8.26-6.782l-2.664-13.428zM9.473 10.053l1.208 6.088c0.469 2.365 2.545 4.069 4.956 4.069h8.976c0.702 0 1.331-0.436 1.577-1.093l2.526-6.737c0.413-1.101-0.401-2.276-1.577-2.276h-16.942c-0.246 0-0.488-0.018-0.725-0.052z"></path>
<path d="M13.474 29.474c0 1.395-1.131 2.526-2.526 2.526s-2.526-1.131-2.526-2.526c0-1.395 1.131-2.526 2.526-2.526s2.526 1.131 2.526 2.526z"></path>
<path d="M26.105 32c1.395 0 2.526-1.131 2.526-2.526s-1.131-2.526-2.526-2.526c-1.395 0-2.526 1.131-2.526 2.526s1.131 2.526 2.526 2.526z"></path>
</symbol>
<symbol id="icon-arrow" viewBox="0 0 55 32">
<path fill="#747778" style="fill: var(--color3, #747778)" d="M3.546 4.683l3.879-3.879 20.003 20.003 20.004-20.003 3.879 3.879-23.882 23.882-23.882-23.882z"></path>
</symbol>
</defs>
</svg>
